<?xml version="1.0" encoding="UTF-8" standalone="no"?>
<!-- Generator: Adobe Illustrator 19.2.1, SVG Export Plug-In . SVG Version: 6.00 Build 0)  -->

<svg
   version="1.1"
   id="Layer_1"
   x="0px"
   y="0px"
   viewBox="0 0 593.27999 593.27998"
   xml:space="preserve"
   sodipodi:docname="compilation.svg"
   width="6.1799998in"
   height="6.1799998in"
   inkscape:export-filename="compilation.png"
   inkscape:export-xdpi="82.8479"
   inkscape:export-ydpi="82.8479"
   inkscape:version="1.3.2 (091e20e, 2023-11-25, custom)"
   xmlns:inkscape="http://www.inkscape.org/namespaces/inkscape"
   xmlns:sodipodi="http://sodipodi.sourceforge.net/DTD/sodipodi-0.dtd"
   xmlns="http://www.w3.org/2000/svg"
   xmlns:svg="http://www.w3.org/2000/svg"
   xmlns:i="http://ns_ai;"><defs
   id="defs15" /><sodipodi:namedview
   id="namedview15"
   pagecolor="#ffffff"
   bordercolor="#000000"
   borderopacity="0"
   inkscape:showpageshadow="2"
   inkscape:pageopacity="0.0"
   inkscape:pagecheckerboard="true"
   inkscape:deskcolor="#d1d1d1"
   inkscape:clip-to-page="true"
   shape-rendering="auto"
   inkscape:zoom="1.4142136"
   inkscape:cx="294.50997"
   inkscape:cy="297.3384"
   inkscape:window-width="1920"
   inkscape:window-height="1129"
   inkscape:window-x="3432"
   inkscape:window-y="-8"
   inkscape:window-maximized="1"
   inkscape:current-layer="g15"
   inkscape:document-units="in" />
<style
   type="text/css"
   id="style1">
	.st0{fill:#FFFFFF;}
</style>
<g
   i:extraneous="self"
   id="g15"
   transform="translate(-0.91039821,-114.2102)"
   inkscape:label="g1"
   style="display:inline">
		<path
   d="m 84.843994,196.78442 c -16.773947,17.2211 -33.47275,34.51766 -50.044923,51.91602 -3.899984,4.09997 -6.59961,11.29962 -6.59961,17.09961 -0.399997,135.99945 -0.298828,272.10015 -0.298828,408.09962 v 12.70117 H 567.19948 c 0,-2.49288 0.002,-4.96455 0.002,-7.45703 l -70.52539,-70.52539 c -20.1242,16.43722 -40.23572,32.89022 -60.47657,49.18164 -3.59998,2.89999 -8.79922,5.40039 -13.19922,5.40039 -0.0671,1.7e-4 -0.13409,-1.7e-4 -0.20117,0 -120.93245,0.29939 -241.76667,0.19922 -362.699227,0.19922 -0.06642,0 -0.132794,0 -0.199219,0 -1.099996,0 -2.200403,-0.29883 -5.400391,-0.79883 0,-4.69997 -0.0012,-8.80001 -0.201171,-13 0,-122.89951 0.10039,-245.80169 -0.09961,-368.70118 0,-7.89997 2.101196,-13.70042 7.701172,-19.40039 14.445613,-14.77393 28.836448,-29.60254 43.183596,-44.47461 z M 207.41431,319.35669 c -16.19571,7.56655 -32.15845,15.62741 -48.11524,23.64258 -2.09997,1 -4.79999,4.6 -4.5,6.5 1.38995,8.43892 3.66639,16.67976 5.65625,24.82227 8.86644,-5.74988 15.82744,-11.95288 23.84376,-14.92188 8.49997,-3.19999 18.10081,-3.19961 27.30078,-4.59961 6.89997,-1.1 13.70001,-2.80078 20.5,-3.30078 2.29417,-0.17206 4.63707,-0.31421 6.96875,-0.48828 z m 40.55274,40.55078 c -18.90626,0.63343 -37.36244,5.07792 -55.66797,12.99219 -10.19996,4.39999 -21.29848,6.9004 -31.89844,10.40039 -10.49106,3.39711 -20.98416,6.9946 -32.47266,10.79102 4.78899,15.66354 9.28066,30.23816 13.77148,44.9082 0.8,0.1 1.6004,0.10117 2.4004,0.20117 1.99998,-5.69998 4.59923,-11.29962 5.69921,-17.09961 0.20608,-1.09906 0.46922,-2.11424 0.76563,-3.08398 0.0156,-0.0513 0.0252,-0.11118 0.041,-0.16211 0.32467,-1.03809 0.70408,-2.0015 1.13672,-2.90039 2.65109,-5.50805 7.34974,-8.51489 14.45704,-10.25391 1.90646,-0.45261 3.79882,-0.9644 5.69726,-1.45117 3.02622,-0.77478 6.03801,-1.59807 9.04297,-2.46094 8.84636,-2.5469 17.59245,-5.43928 26.16016,-8.78906 13.99995,-5.49998 27.70043,-4.99999 41.90039,-2 12.59443,2.73026 25.47205,4.61918 37.93555,7.87891 z m 12.72265,53.05079 c -4.1036,-0.087 -8.23005,0.0849 -12.38086,0.54882 -0.43121,0.0477 -0.8631,0.0997 -1.29492,0.1543 -1.96328,0.25052 -3.93062,0.55152 -5.90625,0.95508 -0.12598,0.0256 -0.25287,0.0635 -0.37891,0.0898 -2.08594,0.43682 -4.17835,0.95416 -6.27929,1.58203 6.48432,12.56417 12.9908,24.01566 29.65039,25.3125 8.89997,0.7 17.60042,4.39924 26.40039,6.69922 -0.0569,0.0219 -0.10929,0.0276 -0.16602,0.0488 0.0556,0.0146 0.11043,0.0362 0.16602,0.0508 -3.79999,1.5 -7.3012,1.4 -10.70117,1 -13.04577,-1.54949 -20.06998,-2.02301 -23.1836,1.04883 -0.16918,0.16691 -0.28326,0.38597 -0.42968,0.57422 -0.16749,0.21532 -0.35157,0.41384 -0.49024,0.6582 -0.37103,0.68466 -0.59971,1.52847 -0.76953,2.45117 -0.17179,0.87591 -0.2406,1.89721 -0.24219,3.01563 0.0112,3.70592 0.84129,8.72914 2.2168,15.55273 0.54771,2.68092 1.46035,5.60515 2.61523,8.50196 0.66885,1.69266 1.44668,3.34906 2.29102,4.96484 2.74524,5.20576 6.31687,9.73082 10.39258,11.63281 4.12777,1.87627 8.59592,3.01253 13.2168,3.81055 0.91868,0.15868 1.84003,0.31113 2.77148,0.44336 8.10986,1.15207 16.61595,1.42394 24.71289,2.54688 0.58763,-1.17525 1.08043,-2.35204 1.66406,-3.52735 -3.78859,-2.89129 -7.57825,-5.78228 -11.76562,-8.97265 0.0355,-0.0149 0.0505,-0.0203 0.0859,-0.0352 -0.03,-0.0234 -0.0559,-0.043 -0.0859,-0.0664 35.29989,-14.79995 39.80121,-17.49919 51.70117,-10.19922 -0.006,0.0304 -0.0132,0.0595 -0.0195,0.0899 0.007,0.004 0.0127,0.006 0.0195,0.01 l -3.30078,15.59961 3.30078,2.40039 c 5.30075,-5.73641 11.76799,-10.96559 16.50781,-16.94922 L 307.9358,419.87818 c -1.51104,-0.26517 -3.00877,-0.49649 -4.53516,-0.77735 -14.12494,-2.62498 -28.28813,-5.83669 -42.71094,-6.14257 z m -58.6875,3.66406 c -7.35095,9.52797 -13.32692,16.41513 -18.40234,23.97851 -1.12063,1.68094 -2.29566,3.14224 -3.55469,4.40821 -0.0388,0.0394 -0.0822,0.0703 -0.12109,0.10937 -1.1163,1.10666 -2.30329,2.05804 -3.58008,2.86133 -0.28938,0.18482 -0.60321,0.34401 -0.90235,0.51367 -1.01359,0.56539 -2.08703,1.04483 -3.22656,1.44336 -1.94165,0.69373 -4.02211,1.22646 -6.41602,1.46289 -22.59989,2.3 -45.09931,5.70042 -67.699216,8.40039 -9.677685,1.19111 -14.562649,1.7776 -17.091797,4.5 -1.652916,1.85749 -2.234776,4.84781 -2.513672,9.48633 -0.07492,1.09259 -0.134697,2.43183 -0.177735,3.7461 -0.04146,1.41764 -0.08336,2.77523 -0.117187,4.46679 -0.03007,0.24057 0.04753,0.53589 0.08984,0.80469 0.117285,0.61358 0.324566,1.13319 0.810547,2.99609 21.19994,1.8 41.59969,6.20038 63.09961,-0.59961 30.79991,-9.79997 62.50127,-17.10001 93.70118,-25.5 0.69383,-0.17345 1.49768,-0.50073 2.24023,-0.76757 1.03045,-0.35705 2.66364,-0.95027 4.17188,-1.54297 1.04862,-0.41416 1.91344,-0.76421 3.36523,-1.30469 -11.92841,-1.29803 -20.51094,-2.98438 -29.17773,-2.98438 -9.59996,0 -12.69961,-4.30082 -12.59961,-13.30078 0.0999,-6.7942 -1.09844,-13.59066 -1.89844,-23.17773 z m -86.49219,76.73633 c -11.34642,-0.14063 -22.44145,2.06095 -33.410156,7.74219 -4.599983,2.29997 -11.800392,6.09846 -11.900391,9.39843 -0.0029,0.0715 -0.0277,0.14715 -0.03125,0.21875 -0.381857,8.73286 -5.381943,18.37292 2.560547,26.26954 0.628308,0.6344 1.380615,1.25254 2.18164,1.86523 0.332258,0.24881 0.626408,0.50356 0.990235,0.74805 27.799915,18.79994 54.798905,38.89889 82.298835,58.29883 3.59998,2.49998 8.2,4.50117 12.5,5.20117 25.59991,3.99998 51.20085,7.69922 76.80078,11.19922 3.69999,0.5 8.59961,1.0992 11.09961,-0.80078 12.86744,-9.97476 25.24209,-20.65047 39.5957,-32.71289 -25.55825,-3.68665 -48.82466,-4.39572 -70.29492,-10.88672 -21.29992,-6.39999 -40.80165,-18.59887 -61.10157,-28.29883 0.0123,-0.0266 0.0248,-0.0573 0.0371,-0.084 -0.0123,-0.006 -0.0248,-0.0117 -0.0371,-0.0176 0.6,-1.39998 1.20079,-2.79962 1.80079,-4.0996 24.78117,5.76873 51.01446,4.07755 75.96484,12.73437 5.75778,1.99773 11.44768,4.54649 17.03516,7.86524 -1,-8.79999 -2.4,-15.99963 -2.5,-23.09962 -0.2,-9.39996 -4.69926,-12.99885 -13.69922,-14.79882 -34.39987,-6.99999 -68.90054,-13.90119 -102.90039,-22.70118 -9.18747,-2.40622 -18.16525,-3.93164 -26.99024,-4.04101 z m 298.25977,32.35351 c -1.81899,7.09025 0.15677,14.63857 3.11133,23.32618 3.92359,-3.00486 7.57299,-5.79195 11.45508,-8.75977 z m 34.42383,34.42383 c -2.85604,3.22983 -6.38823,6.08649 -9.99414,8.46485 -8.39996,5.49997 -17.39965,10.19845 -28.09961,16.39844 10.59996,3.89997 18.80043,6.20078 26.40039,9.80078 5.48117,2.51835 10.25049,2.9264 15.19922,1.27539 1.69985,-0.5845 3.42111,-1.40657 5.20118,-2.47461 5.22146,-3.07566 10.59306,-5.92878 15.9414,-8.81641 z"
   style="display:inline;fill:#e5e4e2;stroke:#000000"
   id="path9" /><path
   d="m 105.2561,217.19848 c -14.317646,14.83488 -28.696966,29.60753 -43.156247,44.30079 -5.699988,5.69998 -7.699219,11.50041 -7.699219,19.40039 0.2,122.89974 0.09961,245.80142 0.09961,368.70118 v 13 c 3.199994,0.5 4.299612,0.79883 5.59961,0.79883 120.999756,0 241.900636,0.10078 362.900396,-0.19922 4.4,0 9.59924,-2.50039 13.19922,-5.40039 20.24087,-16.29143 40.35235,-32.7444 60.47657,-49.18164 l -23.83399,-23.83399 c -5.34834,2.88763 -10.71994,5.74075 -15.9414,8.81641 -7,4.19998 -13.10001,4.6992 -20.50001,1.19922 -7.59998,-3.6 -15.70041,-5.9008 -26.40039,-9.80078 10.79998,-6.2 19.69963,-10.89846 28.09961,-16.39844 3.63587,-2.32077 7.1925,-5.19268 10.06055,-8.49805 l -19.82422,-19.82422 c -3.90985,2.98905 -7.58145,5.79273 -11.53711,8.82227 -3.04388,-8.75891 -5.0312,-16.35931 -3.13867,-23.49805 l -42.65235,-42.65235 c -4.73982,5.98364 -11.20705,11.2128 -16.50781,16.94922 l -3.30078,-2.40039 c 1.1,-5.19998 2.20078,-10.39922 3.30078,-15.69922 -11.89998,-7.29998 -16.40125,-4.60074 -51.70117,10.19922 4.09998,3.2 8.00078,6.10002 11.80078,9 -0.6,1.2 -1.09922,2.40157 -1.69922,3.60157 -13.69996,-1.9 -28.60119,-1.30079 -40.70117,-6.80079 -7.49998,-3.49998 -13.39883,-15.79961 -15.29883,-25.09961 -5.1,-25.29994 -3.10152,-26.50037 22.89844,-23.40039 3.39998,0.4 6.80117,0.5 10.70117,-1 -8.79998,-2.29998 -17.50041,-5.99922 -26.40039,-6.69922 -16.69996,-1.29998 -23.19924,-12.80041 -29.69922,-25.40039 23.69996,-7.09998 46.30004,-1.30115 69,2.79883 1.49217,0.27238 2.94542,0.49936 4.41797,0.75977 L 286.9358,398.87818 c -12.46351,-3.25973 -25.3411,-5.14864 -37.93555,-7.87891 -14.19998,-3 -27.90043,-3.49998 -41.90039,2 -13.29998,5.2 -27.00043,9.40119 -40.90039,12.70117 -9.4,2.3 -14.6004,6.80041 -16.4004,16.40039 -1.09998,5.8 -3.69923,11.39963 -5.69921,17.09961 -0.8,-0.1 -1.6004,-0.10117 -2.4004,-0.20117 -4.49998,-14.69996 -8.99884,-29.30004 -13.79882,-45 11.49996,-3.8 22.00002,-7.39883 32.5,-10.79883 10.59998,-3.39998 21.69846,-6.00039 31.89844,-10.40039 18.28227,-7.90422 36.71854,-12.31651 55.59961,-12.95898 l -8.82813,-8.83008 c -2.33233,0.17414 -4.67588,0.31617 -6.9707,0.48828 -6.8,0.5 -13.60002,2.20078 -20.5,3.30078 -9.19998,1.4 -18.8008,1.39961 -27.30078,4.59961 -8.1,3 -15.09963,9.29963 -24.09961,15.09961 -2,-8.19998 -4.39924,-16.50002 -5.69922,-25 -0.4,-1.9 2.3,-5.4 4.5,-6.5 16.08565,-8.04283 32.06548,-16.18603 48.29492,-23.76367 z m 96.84376,199.30079 c 0.9,9.69998 2.00039,16.40119 1.90039,23.20117 -0.1,8.99998 2.89963,13.29883 12.59961,13.29883 8.59998,-0.1 17.3008,1.7 29.30078,3 -5.4,2 -7.6,3.10117 -10,3.70117 -31.19994,8.4 -62.90124,15.70002 -93.70118,25.5 -21.49994,6.8 -41.89965,2.39961 -63.099606,0.59961 -0.7,-2.29998 -1.000391,-3.00078 -0.900391,-3.80078 0.399998,-19.99996 0.50004,-19.89883 20,-22.29883 22.499957,-2.69998 45.101217,-6.10039 67.701177,-8.40039 8.09998,-0.8 13.29922,-4.09922 17.69922,-10.69922 5.09998,-7.59998 11.1,-14.50158 18.5,-24.10156 z m -90.4004,76.80078 c 10.02498,-0.35 20.25081,1.25002 30.80079,4 33.99992,8.8 68.50045,15.69924 102.90039,22.69922 8.99998,1.9 13.49922,5.40081 13.69922,14.80079 0.1,7.19998 1.5,14.39922 2.5,23.19922 -29.79994,-17.69998 -62.50006,-13.49963 -93,-20.59961 -0.6,1.29998 -1.20079,2.69962 -1.80079,4.0996 20.29996,9.69998 39.80161,21.90079 61.10157,28.30079 21.59996,6.49998 44.79848,7.20039 70.39844,10.90039 -14.39998,12.09998 -26.79924,22.79885 -39.69922,32.79883 -2.5,1.89998 -7.39961,1.30078 -11.09961,0.80078 -25.59996,-3.5 -51.20084,-7.19924 -76.80078,-11.19922 -4.3,-0.7 -8.90002,-2.70119 -12.5,-5.20117 -27.49996,-19.39996 -54.49889,-39.49887 -82.298835,-58.29883 -12.499976,-8.39998 -6.001172,-19.4012 -5.701172,-29.20118 0.1,-3.29998 7.300399,-7.00039 11.900391,-9.40039 9.74998,-5.04998 19.574626,-7.34922 29.599606,-7.69922 z"
   style="display:inline;fill:#66023c;stroke:#000000;stroke-width:3.744"
   id="path8" /><path
   id="polygon1"
   style="display:inline;fill:#cfb53b;fill-opacity:1;stroke:#cfb53b;stroke-opacity:1"
   inkscape:label="polygon"
   d="M 40.69203,8.6959052 24.263383,25.12402 161.22685,162.09187 h 0.002 V 8.6959052 Z"
   transform="matrix(3.7974101,0,0,3.8387108,-20.43075,85.808309)" />
	<path
   id="path2"
   style="display:inline;fill:#002366;fill-opacity:1;stroke:#000000;stroke-width:3.72206;stroke-opacity:1"
   d="m 153.40975,59.330268 -47.03937,47.042262 27.07309,27.07362 90.09884,-59.353634 -69.52919,79.923684 14.33744,14.33772 17.24816,-25.41088 -1.00431,35.83152 6.78055,-1.78263 9.40238,-42.96009 57.7153,-25.0571 66.53985,-49.644472 h -60.7754 l -33.03211,53.467212 -27.97913,4.56763 56.94095,-58.034842 z m 172.80983,0.0039 -61.54189,92.577042 -29.8659,9.53621 -24.29011,10.51891 106.87335,-28.06812 -98.37112,60.20072 -6.69015,8.23903 13.15231,13.15257 7.75146,-8.30585 52.89226,-21.54687 -32.53487,32.75761 -7.04392,18.16046 13.95222,13.95249 30.05064,-32.83426 -12.88502,33.75997 12.88502,17.19937 11.90823,2.95009 1.94179,-42.68296 6.00816,13.10933 3.36473,-15.38332 4.20984,-24.83501 7.44289,10.64863 15.19434,-17.80079 5.03137,3.17415 5.77428,2.08728 14.57525,-6.4564 11.82175,1.73743 -12.45067,12.56884 -0.42452,8.34516 -10.48137,11.52324 -2.91465,32.73206 10.99629,3.57706 37.28323,-52.09731 8.09932,-35.79418 6.47986,41.71205 -6.47986,28.33935 16.17703,-8.97803 13.00491,-19.36132 -28.79083,-121.34682 43.34053,79.63477 -3.22715,38.74623 21.08065,-44.64248 12.96167,17.84009 1.61357,37.24269 24.29208,-50.66452 11.34024,-2.9442 -19.4376,74.47359 -32.42285,19.3515 3.26843,-14.87428 -44.07951,51.94204 -2.94414,-28.12315 -18.58069,37.23483 -27.44061,12.95603 -7.31317,-32.67899 -25.2787,43.60867 1.80815,1.80818 13.31937,-3.06801 -5.21022,11.17733 11.47388,11.4741 11.5918,-24.54216 -2.18157,27.4156 -3.18391,3.353 113.79345,113.79569 47.0433,-47.04029 V 59.334199 Z m 114.89603,69.683862 40.96635,29.18055 1.35807,30.17898 z m 58.01011,21.33068 12.98525,14.72097 -2.98737,14.66005 z"
   transform="matrix(1.0202373,0,0,1.0313461,-2.0664702,107.67362)" /><path
   id="path7"
   style="display:inline;stroke-width:0.96;stroke-dasharray:none"
   inkscape:label="path1"
   d="M 0.91039821,242.56567 V 707.48951 H 594.18971 v -1.35742 l -0.92187,-0.92187 h 0.92187 V 121.2102 h -24.7793 v 560.14259 l -2.20898,-2.20898 v 7.45508 H 27.801024 v -12.69922 c 0,-135.99921 -0.101167,-272.10045 0.298828,-408.09962 0,-5.79999 2.701587,-12.99966 6.601563,-17.09961 16.588006,-17.41498 33.303566,-34.72739 50.093751,-51.96485 l -19.6875,-19.6875 c -21.399991,21.838 -42.781907,43.6955 -64.19726779,65.51758 z" /><path
   id="path5"
   style="display:inline;fill:#000000;fill-opacity:1;stroke:#000000;stroke-opacity:1"
   d="m 22.73539,23.595978 4.813406,4.81356 15.238463,-15.23895 H 156.75601 v 116.406172 28.04095 h -0.003 l 7.47429,7.47453 h 0.003 V 130.47919 5.696062 h -0.002 -123.398276"
   transform="matrix(3.7974101,0,0,3.8387108,-20.43075,85.808309)" /><path
   id="rect5"
   style="display:inline;fill:#000000;fill-opacity:1;fill-rule:evenodd;stroke-width:34.8324;paint-order:stroke fill markers"
   d="m 478.98624,-328.05699 403.88244,402.660705 -711.94484,2.86e-4 8.6e-4,4.5037 716.46107,-5.65e-4 9.27618,9.248122 9.22097,-9.248293 4.78691,4.8e-4 -8.7e-4,-4.5037 -0.29555,-5.74e-4 11.40032,-11.434101 -417.67572,-416.41225 z"
   transform="matrix(0.70185412,0.71232063,-0.70398367,0.71021608,6.4314825e-8,-3.2222265e-6)" /></g>

</svg>
