<?xml version="1.0" encoding="UTF-8" standalone="no"?>
<!-- Generator: Adobe Illustrator 16.0.0, SVG Export Plug-In . SVG Version: 6.00 Build 0)  -->

<svg
   version="1.1"
   id="Layer_1"
   x="0px"
   y="0px"
   width="6.1799998in"
   height="6.1799998in"
   viewBox="0 0 593.261 593.261"
   enable-background="new 0 0 170.08 170.08"
   xml:space="preserve"
   sodipodi:docname="sequence.svg"
   inkscape:version="1.3.2 (091e20e, 2023-11-25, custom)"
   inkscape:export-filename="sequence-16.png"
   inkscape:export-xdpi="2.5889969"
   inkscape:export-ydpi="2.5889969"
   xmlns:inkscape="http://www.inkscape.org/namespaces/inkscape"
   xmlns:sodipodi="http://sodipodi.sourceforge.net/DTD/sodipodi-0.dtd"
   xmlns="http://www.w3.org/2000/svg"
   xmlns:svg="http://www.w3.org/2000/svg"><defs
   id="defs2" /><sodipodi:namedview
   id="namedview2"
   pagecolor="#ffffff"
   bordercolor="#000000"
   borderopacity="0"
   inkscape:showpageshadow="2"
   inkscape:pageopacity="0.0"
   inkscape:pagecheckerboard="true"
   inkscape:deskcolor="#d1d1d1"
   inkscape:zoom="0.60959273"
   inkscape:cx="185.36966"
   inkscape:cy="181.26857"
   inkscape:window-width="1920"
   inkscape:window-height="1129"
   inkscape:window-x="3432"
   inkscape:window-y="-8"
   inkscape:window-maximized="1"
   inkscape:current-layer="g1"
   inkscape:document-units="in" />
<g
   id="g1"
   transform="matrix(3.7220851,0,0,3.7220395,-18.000008,-21.200747)">
	<polygon
   fill="#ffffff"
   points="7.836,41.552 40.692,8.696 161.229,8.696 161.229,162.092 7.836,162.092 "
   id="polygon1"
   style="display:inline;fill:#cfb53b;fill-opacity:1;stroke:#cfb53b;stroke-opacity:1"
   inkscape:label="polygon" />
	<path
   id="path1"
   style="display:inline;fill:#000000;fill-opacity:1;stroke:#000000;stroke-opacity:1"
   d="M 39.449281,5.696 4.836,40.309281 V 165.09248 H 164.23053 V 130.4792 5.696 h -0.002 z m 3.337891,7.474609 H 156.75592 V 129.57686 157.61787 H 12.310609 V 43.647172 Z" /><path
   d="m 326.21939,59.333915 -61.54096,92.578285 -29.86601,9.53587 -24.29033,10.51848 106.87223,-28.0679 -98.37098,60.20027 -36.13028,44.50071 23.66501,-2.82131 26.67991,-28.59271 52.89083,-21.54688 -32.53475,32.75767 -17.43424,44.94362 11.62779,12.56933 7.42184,-19.61515 35.34492,-38.61988 -12.88586,33.7589 12.88586,17.19954 11.90695,2.95158 1.94293,-42.68435 6.00744,13.10902 3.36477,-15.38319 4.20967,-24.83344 7.44417,10.64875 15.19356,-17.80251 5.03225,3.1749 5.77296,2.08806 14.57568,-6.45774 11.82135,1.73819 -12.45038,12.56933 -0.42432,8.34481 -10.48139,11.52344 -2.91439,32.73161 10.99504,3.57688 37.28412,-52.09738 8.09926,-35.79486 6.48015,41.7129 -6.48015,28.33961 16.17618,-8.97756 13.00497,-19.36205 -28.79033,-121.34593 43.33996,79.63303 -3.22705,38.74643 21.08189,-44.64214 12.9603,17.83974 1.61539,37.24273 24.29032,-50.66441 11.3412,-2.94413 -19.43673,74.47429 -32.42308,19.35088 3.26799,-14.87327 -44.08066,51.94106 -2.94417,-28.12373 -18.58064,37.23529 -27.43922,12.95642 -7.31389,-32.67951 -26.76552,46.17562 16.61539,-3.82625 -15.8598,34.02688 -34.45535,17.89929 21.04467,87.43071 20.97768,-5.4379 -12.95658,30.18574 -46.66006,-14.60528 -7.96526,-23.03199 -22.47023,31.55918 -46.23574,18.2901 34.35857,-43.76746 19.44417,-59.58241 -6.20472,3.2084 -26.02109,51.33809 -44.7953,41.63101 -56.15137,-19.7082 58.35857,-16.77895 27.70348,-35.20678 -38.14393,19.81242 -9.97891,-59.6494 22.96154,25.70812 52.6489,-20.82109 25.57444,-32.52318 -22.09429,-10.12767 30.30893,-29.47855 -23.33747,-17.3447 -13.47395,17.89556 -62.89951,-8.97756 v -37.23528 l -27.27544,23.97738 1.80893,-18.02212 -30.15261,-22.50717 -30.014894,4.34734 9.044664,-63.09601 11.4603,14.02092 44.27048,-52.09367 22.15385,-32.63856 -1.00496,35.83207 6.78164,-1.78285 9.40199,-42.95978 57.71465,-25.05677 66.53971,-49.644567 h -60.7742 l -33.03351,53.467097 -27.97891,4.56694 56.94046,-58.034037 H 153.41042 L 59.327277,153.41591 V 533.94979 H 439.87325 l 94.07943,-94.07083 V 59.333915 Z m 114.89704,69.684025 40.96527,29.18079 1.35856,30.1783 z m 68.00622,50.71279 -9.99752,-29.38178 12.98635,14.72066 z M 128.68461,136.58112 223.54195,74.091802 115.7057,198.05061 Z m 33.95286,345.23406 -27.95658,-19.28389 28.93921,9.17855 z m -15.99752,-95.45543 30.97519,61.47693 -76.90572,-88.16767 z m 23.18487,145.89651 -77.888356,-9.95274 53.921846,-9.9304 39.9417,7.95772 z M 273.47,502.91542 l 15.97891,-4.58927 15.97147,21.10396 z m 102.83004,-133.1448 -21.43176,22.57417 23.6129,-49.99071 z"
   id="path2"
   style="display:inline;fill:#002366;fill-opacity:1;stroke:#000000;stroke-width:3.72206;stroke-opacity:1"
   transform="matrix(0.26866661,0,0,0.26866991,4.8360012,5.6960027)" />
</g>

</svg>
